<svg viewBox="0 0 500 500" xmlns="http://www.w3.org/2000/svg">
  <defs></defs>
  <path d="M 250.601 0.62 C 113.213 0.62 1.822 112.011 1.822 249.399 C 1.822 386.787 113.213 498.178 250.601 498.178 C 387.989 498.178 499.38 386.787 499.38 249.399 C 499.38 112.011 387.989 0.62 250.601 0.62 Z M 279.915 249.399 C 279.915 249.399 344.992 314.475 348.184 317.668 C 356.29 325.774 356.29 338.897 348.184 346.982 C 340.078 355.088 326.955 355.088 318.87 346.982 C 315.677 343.81 250.601 278.713 250.601 278.713 C 250.601 278.713 185.524 343.79 182.332 346.982 C 174.226 355.088 161.103 355.088 153.017 346.982 C 144.911 338.876 144.911 325.753 153.017 317.668 C 156.189 314.475 221.286 249.399 221.286 249.399 C 221.286 249.399 156.21 184.322 153.017 181.13 C 144.911 173.024 144.911 159.901 153.017 151.815 C 161.123 143.709 174.246 143.709 182.332 151.815 C 185.524 154.987 250.601 220.084 250.601 220.084 C 250.601 220.084 315.677 155.008 318.87 151.815 C 326.976 143.709 340.099 143.709 348.184 151.815 C 356.29 159.921 356.29 173.044 348.184 181.13 C 345.012 184.322 279.915 249.399 279.915 249.399 Z" style="fill: rgb(163, 173, 179);"></path>
</svg>